# xmcd CD database file
#
# Track frame offsets:
#	150
#	14503
#	28260
#	42267
#	54195
#	69123
#	82686
#	97572
#	112422
#	126244
#	139718
#	151482
#	164878
#	178985
#	191412
#	205674
#	218568
#	231429
#	244760
#	258466
#
# Disc length: 3634 seconds
#
# Revision: 7
# Processed by: cddbd v1.5.2PL0 Copyright (c) Steve Scherf et al.
# Submitted via: CDex 1.51
#
DISCID=150e3014
DTITLE=Louis Armstrong - it's Louis Armstrong - Vol.6
DYEAR=1900
DGENRE=Jazz
TTITLE0=(Was I To Blame For)  Falling In Love With You
TTITLE1=Red Sails In The Sunset
TTITLE2=On Treasure Island
TTITLE3=Thanks A Million
TTITLE4=Shoe Shine Boy
TTITLE5=Solitude
TTITLE6=I Hope Gabriel Likes My Music
TTITLE7=The Music Goes Round And Around
TTITLE8=Rhythm Saved The World
TTITLE9=I'm Putting All My Eggs On One Basket
TTITLE10=Yes! Yes! My! My!
TTITLE11=I Come From A Musical Family
TTITLE12=If We Never Meet Again
TTITLE13=Somebody Stole My Break
TTITLE14=Lyin' To Myself
TTITLE15=Ev'ntide
TTITLE16=Swing That Music
TTITLE17=Thankful
TTITLE18=Red Nose
TTITLE19=Public Melody Number One
EXTD=
EXTT0=
EXTT1=
EXTT2=
EXTT3=
EXTT4=
EXTT5=
EXTT6=
EXTT7=
EXTT8=
EXTT9=
EXTT10=
EXTT11=
EXTT12=
EXTT13=
EXTT14=
EXTT15=
EXTT16=
EXTT17=
EXTT18=
EXTT19=
PLAYORDER=
